<?xml version="1.0" encoding="UTF-8" standalone="no"?>
<svg
   xmlns:dc="http://purl.org/dc/elements/1.1/"
   xmlns:cc="http://creativecommons.org/ns#"
   xmlns:rdf="http://www.w3.org/1999/02/22-rdf-syntax-ns#"
   xmlns:svg="http://www.w3.org/2000/svg"
   xmlns="http://www.w3.org/2000/svg"
   xmlns:sodipodi="http://sodipodi.sourceforge.net/DTD/sodipodi-0.dtd"
   xmlns:inkscape="http://www.inkscape.org/namespaces/inkscape"
   height="24"
   viewBox="0 0 24 24"
   width="24"
   id="svg2"
   version="1.1"
   inkscape:version="0.91 r13725"
   sodipodi:docname="akta_cerai-24px.svg">
  <metadata
     id="metadata12">
    <rdf:RDF>
      <cc:Work
         rdf:about="">
        <dc:format>image/svg+xml</dc:format>
        <dc:type
           rdf:resource="http://purl.org/dc/dcmitype/StillImage" />
        <dc:title></dc:title>
      </cc:Work>
    </rdf:RDF>
  </metadata>
  <defs
     id="defs10" />
  <sodipodi:namedview
     pagecolor="#ffffff"
     bordercolor="#666666"
     borderopacity="1"
     objecttolerance="10"
     gridtolerance="10"
     guidetolerance="10"
     inkscape:pageopacity="0"
     inkscape:pageshadow="2"
     inkscape:window-width="1364"
     inkscape:window-height="707"
     id="namedview8"
     showgrid="false"
     inkscape:zoom="14.481547"
     inkscape:cx="18.641697"
     inkscape:cy="7.1328024"
     inkscape:window-x="1"
     inkscape:window-y="31"
     inkscape:window-maximized="1"
     inkscape:current-layer="svg2" />
  <path
     d="M0 0h24v24H0V0z"
     id="path4"
     fill="none" />
  <g
     id="g4192"
     transform="translate(-0.55242718,0)">
    <rect
       y="3.1579766"
       x="4.0575457"
       height="16.581089"
       width="16.581087"
       id="rect4140"
       style="fill:none;fill-opacity:1;stroke:#000000;stroke-width:1.4189117;stroke-linecap:round;stroke-linejoin:round;stroke-miterlimit:4;stroke-dasharray:none;stroke-dashoffset:0;stroke-opacity:1" />
    <text
       transform="scale(1.0425965,0.95914383)"
       sodipodi:linespacing="125%"
       id="text4157"
       y="13.563072"
       x="11.91081"
       style="font-style:normal;font-variant:normal;font-weight:normal;font-stretch:normal;font-size:28.60406876px;line-height:125%;font-family:Arial;-inkscape-font-specification:Arial;letter-spacing:0px;word-spacing:0px;fill:#000000;fill-opacity:1;stroke:none;stroke-width:1px;stroke-linecap:butt;stroke-linejoin:miter;stroke-opacity:1"
       xml:space="preserve"><tspan
         style="font-style:normal;font-variant:normal;font-weight:normal;font-stretch:normal;font-size:3.57550859px;font-family:'Arial Black';-inkscape-font-specification:'Arial Black, ';text-align:center;text-anchor:middle"
         y="13.563072"
         x="11.91081"
         id="tspan4159"
         sodipodi:role="line">AKTA</tspan><tspan
         style="font-style:normal;font-variant:normal;font-weight:normal;font-stretch:normal;font-size:3.57550859px;font-family:'Arial Black';-inkscape-font-specification:'Arial Black, ';text-align:center;text-anchor:middle"
         id="tspan4161"
         y="18.032457"
         x="11.91081"
         sodipodi:role="line">CERAI</tspan></text>
    <g
       id="g10"
       transform="matrix(0.25997777,0,0,0.25997777,9.228356,4.410127)">
      <g
         id="g12">
        <path
           id="path14"
           d="M 20,3 4,3 C 2.9,3 2,3.9 2,5 l 0,14 c 0,1.1 0.9,2 2,2 l 16,0 c 1.1,0 2,-0.9 2,-2 L 22,5 C 22,3.9 21.1,3 20,3 Z M 9,17 6,17 C 5.45,17 5,16.55 5,16 5,15.45 5.45,15 6,15 l 3,0 c 0.55,0 1,0.45 1,1 0,0.55 -0.45,1 -1,1 z M 9,13 6,13 C 5.45,13 5,12.55 5,12 5,11.45 5.45,11 6,11 l 3,0 c 0.55,0 1,0.45 1,1 0,0.55 -0.45,1 -1,1 z M 9,9 6,9 C 5.45,9 5,8.55 5,8 5,7.45 5.45,7 6,7 l 3,0 c 0.55,0 1,0.45 1,1 0,0.55 -0.45,1 -1,1 z m 9.7,2.12 -3.17,3.17 c -0.39,0.39 -1.03,0.39 -1.42,0 L 12.7,12.87 c -0.39,-0.39 -0.39,-1.02 0,-1.41 0.39,-0.39 1.02,-0.39 1.41,0 l 0.71,0.71 2.47,-2.47 c 0.39,-0.39 1.02,-0.39 1.41,0 l 0.01,0.01 c 0.38,0.39 0.38,1.03 -0.01,1.41 z"
           inkscape:connector-curvature="0"
           style="fill-rule:evenodd" />
      </g>
    </g>
  </g>
</svg>
