<?xml version="1.0" encoding="UTF-8" standalone="no"?>
<svg
   xmlns:dc="http://purl.org/dc/elements/1.1/"
   xmlns:cc="http://creativecommons.org/ns#"
   xmlns:rdf="http://www.w3.org/1999/02/22-rdf-syntax-ns#"
   xmlns:svg="http://www.w3.org/2000/svg"
   xmlns="http://www.w3.org/2000/svg"
   xmlns:xlink="http://www.w3.org/1999/xlink"
   xmlns:sodipodi="http://sodipodi.sourceforge.net/DTD/sodipodi-0.dtd"
   xmlns:inkscape="http://www.inkscape.org/namespaces/inkscape"
   width="40"
   height="40"
   viewBox="0 0 40 40"
   version="1.1"
   id="svg6"
   sodipodi:docname="card_004_panjar.svg"
   inkscape:version="1.0.1 (0767f8302a, 2020-10-17)">
  <metadata
     id="metadata12">
    <rdf:RDF>
      <cc:Work
         rdf:about="">
        <dc:format>image/svg+xml</dc:format>
        <dc:type
           rdf:resource="http://purl.org/dc/dcmitype/StillImage" />
        <dc:title></dc:title>
      </cc:Work>
    </rdf:RDF>
  </metadata>
  <defs
     id="defs10">
    <linearGradient
       inkscape:collect="always"
       id="linearGradient1188">
      <stop
         style="stop-color:#fffff0;stop-opacity:1;"
         offset="0"
         id="stop1184" />
      <stop
         style="stop-color:#fffff0;stop-opacity:0;"
         offset="1"
         id="stop1186" />
    </linearGradient>
    <linearGradient
       inkscape:collect="always"
       xlink:href="#linearGradient1188"
       id="linearGradient1190"
       x1="16.545718"
       y1="9.5637455"
       x2="21.028566"
       y2="9.5637455"
       gradientUnits="userSpaceOnUse" />
  </defs>
  <sodipodi:namedview
     pagecolor="#ffffff"
     bordercolor="#666666"
     borderopacity="1"
     objecttolerance="10"
     gridtolerance="10"
     guidetolerance="10"
     inkscape:pageopacity="0"
     inkscape:pageshadow="2"
     inkscape:window-width="1366"
     inkscape:window-height="708"
     id="namedview8"
     showgrid="false"
     showguides="true"
     inkscape:guide-bbox="true"
     inkscape:zoom="2.4571961"
     inkscape:cx="21.518329"
     inkscape:cy="41.735346"
     inkscape:window-x="0"
     inkscape:window-y="31"
     inkscape:window-maximized="1"
     inkscape:current-layer="svg6">
    <sodipodi:guide
       position="-11.751199,25.14567"
       orientation="0,-1"
       id="guide858" />
    <sodipodi:guide
       position="-12.870361,20.618152"
       orientation="0,-1"
       id="guide860" />
  </sodipodi:namedview>
  <path
     id="Path_20"
     data-name="Path 20"
     d="M 0,0 H 40 V 40 H 0 Z"
     fill="none"
     fill-rule="evenodd" />
  <path
     id="Path_21"
     data-name="Path 21"
     d="M 39.89,19.945 A 19.945,19.945 0 1 1 19.945,0 19.944,19.944 0 0 1 39.89,19.945 Z"
     fill="#ed2324"
     fill-rule="evenodd" />
  <path
     id="Path_22"
     data-name="Path 22"
     d="m 40.473957,52.775283 v 16.12 a 1.912,1.912 0 0 1 -2.071,2.05 h -11 a 1.9,1.9 0 0 1 -2.06,-2.05 v -10.375 a 6.193,6.193 0 0 0 1.008,0.09 2.414,2.414 0 0 0 0.452,-0.046 v 10.331 a 0.674,0.674 0 0 0 0.6,0.66 h 11 a 0.674,0.674 0 0 0 0.6,-0.66 v -16.12 a 0.618,0.618 0 0 0 -0.6,-0.6 h -5.941 a 4.059,4.059 0 0 0 -0.252,-1.4 h 6.193 a 1.878,1.878 0 0 1 2.071,2 z m -14.22,5.076 a 5.438,5.438 0 1 1 5.439,-5.438 5.444,5.444 0 0 1 -5.439,5.438 z m 0,-1.153 a 4.285,4.285 0 1 0 -4.284,-4.285 4.29,4.29 0 0 0 4.284,4.285 z m 3.262,-3.708 a 0.577,0.577 0 1 0 0,-1.153 h -2.685 v -2.262 a 0.577,0.577 0 0 0 -1.153,0 v 2.84 a 0.578,0.578 0 0 0 0.577,0.576 z m 6.654,4.673 h -6.245 a 0.577,0.577 0 1 0 0,1.153 h 6.245 a 0.577,0.577 0 0 0 0,-1.153 z m 0.01,3.5 h -6.245 a 0.577,0.577 0 1 0 0,1.153 h 6.245 a 0.577,0.577 0 0 0 0,-1.153 z m 0,3.641 h -6.245 a 0.577,0.577 0 1 0 0,1.153 h 6.245 a 0.577,0.577 0 0 0 0,-1.153 z"
     fill="#ffffff" />
  <g
     inkscape:groupmode="layer"
     id="layer1"
     inkscape:label="Layer 1" />
  <text
     xml:space="preserve"
     style="font-style:normal;font-weight:normal;font-size:8.95695px;line-height:125%;font-family:sans-serif;letter-spacing:0px;word-spacing:0px;fill:#fffff0;fill-opacity:1;stroke:none;stroke-width:0.223924px;stroke-linecap:butt;stroke-linejoin:miter;stroke-opacity:1"
     x="12.680348"
     y="17.389452"
     id="text856"><tspan
       sodipodi:role="line"
       id="tspan854"
       x="12.680348"
       y="17.389452"
       style="font-style:normal;font-variant:normal;font-weight:bold;font-stretch:normal;font-family:Arial;-inkscape-font-specification:'Arial Bold';fill:#fffff0;fill-opacity:1;stroke:none;stroke-width:0.223924px;stroke-opacity:1">+</tspan></text>
  <rect
     style="fill:#fffff0;fill-opacity:1;stroke:none;stroke-width:0.18;stroke-linejoin:miter;stroke-miterlimit:4;stroke-dasharray:none;stroke-opacity:1"
     id="rect999"
     width="4.586947"
     height="1.2582233"
     x="21.16865"
     y="13.596107" />
  <text
     xml:space="preserve"
     style="font-style:normal;font-weight:normal;font-size:7.58353px;line-height:125%;font-family:sans-serif;letter-spacing:0px;word-spacing:0px;fill:#ffffff;fill-opacity:1;stroke:none;stroke-width:0.189588px;stroke-linecap:butt;stroke-linejoin:miter;stroke-opacity:1"
     x="13.197682"
     y="25.303043"
     id="text856-7"><tspan
       sodipodi:role="line"
       id="tspan854-2"
       x="13.197682"
       y="25.303043"
       style="font-style:normal;font-variant:normal;font-weight:bold;font-stretch:normal;font-family:Arial;-inkscape-font-specification:'Arial Bold';stroke:none;stroke-width:0.189588px;stroke-opacity:1">x</tspan></text>
  <rect
     style="fill:none;fill-opacity:1;stroke:#ffffff;stroke-width:1.12323;stroke-linejoin:miter;stroke-miterlimit:4;stroke-dasharray:none;stroke-opacity:1"
     id="rect954"
     width="17.805656"
     height="17.646917"
     x="11.223011"
     y="9.8242149" />
  <circle
     style="fill:#ed2324;fill-opacity:1;stroke:#ffffff;stroke-width:1.18882;stroke-linejoin:miter;stroke-miterlimit:4;stroke-dasharray:none;stroke-opacity:1"
     id="path956"
     cx="28.151175"
     cy="26.668671"
     r="5.5447683" />
  <g
     id="g1033"
     transform="translate(47.939991,3.3757882)"
     style="fill:#ffffff;fill-opacity:1;stroke:none;stroke-opacity:1">
    <rect
       style="fill:#ffffff;fill-opacity:1;stroke:none;stroke-width:0.18;stroke-linejoin:miter;stroke-miterlimit:4;stroke-dasharray:none;stroke-opacity:1"
       id="rect999-4"
       width="4.586947"
       height="1.2582233"
       x="-22.082289"
       y="21.742062" />
    <rect
       style="fill:#ffffff;fill-opacity:1;stroke:none;stroke-width:0.18;stroke-linejoin:miter;stroke-miterlimit:4;stroke-dasharray:none;stroke-opacity:1"
       id="rect999-4-1"
       width="4.586947"
       height="1.2582233"
       x="-22.082289"
       y="23.58548" />
  </g>
</svg>
