<svg xmlns="http://www.w3.org/2000/svg" width="40" height="40" viewBox="0 0 40 40">
  <g id="usage" transform="translate(-30 -30)">
    <path id="Path_14" data-name="Path 14" d="M0,0H40V40H0Z" transform="translate(30 30)" fill="none" fill-rule="evenodd"/>
    <path id="Path_15" data-name="Path 15" d="M19.945,0A19.944,19.944,0,1,1,0,19.945,19.944,19.944,0,0,1,19.945,0ZM10.8,12a.8.8,0,0,0-.8.8V27.61a.761.761,0,0,0,.006.1L10,27.8a.8.8,0,0,0,.8.8H29.2a.8.8,0,1,0,0-1.6H11.6V12.8a.8.8,0,0,0-.7-.794Zm12.308,1.026c-.44,0-.8.637-.8,1.415v8.45c0,.78.36,1.417.8,1.417s.8-.637.8-1.416v-8.45c0-.78-.36-1.416-.8-1.416ZM27.21,12c-.44,0-.8.505-.8,1.122V23.186c0,.617.36,1.122.8,1.122s.8-.5.8-1.122V13.122C28.01,12.505,27.65,12,27.21,12ZM19,15.077c-.44,0-.8.694-.8,1.542v6.147c0,.848.36,1.542.8,1.542s.8-.694.8-1.542V16.619C19.8,15.771,19.445,15.077,19,15.077Zm-4.1,2.051a.857.857,0,0,0-.8.9v5.382a.806.806,0,1,0,1.6,0V18.027A.857.857,0,0,0,14.9,17.128Z" transform="translate(30 30)" fill="#ed2324" fill-rule="evenodd"/>
  </g>
</svg>
