<svg xmlns="http://www.w3.org/2000/svg" width="40" height="40" viewBox="0 0 40 40">
  <g id="transaction" transform="translate(-30 -30)">
    <path id="Path_20" data-name="Path 20" d="M0,0H40V40H0Z" transform="translate(30 30)" fill="none" fill-rule="evenodd"/>
    <path id="Path_21" data-name="Path 21" d="M39.89,19.945A19.945,19.945,0,1,1,19.945,0,19.944,19.944,0,0,1,39.89,19.945Z" transform="translate(30 30)" fill="#ed2324" fill-rule="evenodd"/>
    <path id="Path_22" data-name="Path 22" d="M29.671,13.8V29.92A1.912,1.912,0,0,1,27.6,31.97h-11a1.9,1.9,0,0,1-2.06-2.05V19.545a6.193,6.193,0,0,0,1.008.09A2.414,2.414,0,0,0,16,19.589V29.92a.674.674,0,0,0,.6.66h11a.674.674,0,0,0,.6-.66V13.8a.618.618,0,0,0-.6-.6H21.659a4.059,4.059,0,0,0-.252-1.4H27.6A1.878,1.878,0,0,1,29.671,13.8Zm-14.22,5.076a5.438,5.438,0,1,1,5.439-5.438,5.444,5.444,0,0,1-5.439,5.438Zm0-1.153a4.285,4.285,0,1,0-4.284-4.285,4.29,4.29,0,0,0,4.284,4.285Zm3.262-3.708a.577.577,0,1,0,0-1.153H16.028V10.6a.577.577,0,0,0-1.153,0v2.84a.578.578,0,0,0,.577.576Zm6.654,4.673H19.122a.577.577,0,1,0,0,1.153h6.245a.577.577,0,0,0,0-1.153Zm.01,3.5H19.132a.577.577,0,1,0,0,1.153h6.245a.577.577,0,0,0,0-1.153Zm0,3.641H19.132a.577.577,0,1,0,0,1.153h6.245a.577.577,0,0,0,0-1.153Z" transform="translate(30 30)" fill="#fff"/>
  </g>
</svg>
