<?xml version="1.0" encoding="UTF-8"?>
<!DOCTYPE svg PUBLIC "-//W3C//DTD SVG 1.1//EN" "http://www.w3.org/Graphics/SVG/1.1/DTD/svg11.dtd">
<!-- Creator: CorelDRAW 2020 (64-Bit) -->
<svg xmlns="http://www.w3.org/2000/svg" xml:space="preserve" width="210mm" height="297mm" version="1.1" style="shape-rendering:geometricPrecision; text-rendering:geometricPrecision; image-rendering:optimizeQuality; fill-rule:evenodd; clip-rule:evenodd"
viewBox="0 0 21000 29700"
 xmlns:xlink="http://www.w3.org/1999/xlink"
 xmlns:xodm="http://www.corel.com/coreldraw/odm/2003">
 <defs>
  <style type="text/css">
   <![CDATA[
    .fil0 {fill:red}
   ]]>
  </style>
 </defs>
 <g id="Layer_x0020_1">
  <metadata id="CorelCorpID_0Corel-Layer"/>
  <g id="_1895800784048">
   <path class="fil0" d="M3158.68 17345.37c60.62,-767.03 215.42,-620.25 -30.85,-1058.81 -572.73,-1019.92 -394.64,-2144.34 294.11,-2950.54 1462.16,-1711.49 4471.38,-727.04 4532.28,1645.22 38.45,1497.9 -1217.85,2672.2 -2676.13,2607.8 -990.15,-43.73 -1033.09,-465.59 -1552.57,-354.85 -179.33,38.23 -390.8,94.57 -566.84,111.18zm-635.56 602.21c309.69,-24.14 1172.89,-230.49 1374.61,-203.64 218.65,29.09 1915.3,1060.08 3603.85,-469.51 1305.14,-1182.27 1248.08,-3299.61 13.51,-4458.34 -523.44,-491.29 -1309.88,-897.42 -2341.75,-847.8 -1728.4,83.1 -3129.38,1636.3 -2871.24,3439.87 32.39,226.28 81.26,438.57 151.3,633.48 108.09,300.81 203.13,410.52 260.47,553.46 73.31,182.79 -174.41,1095.45 -190.75,1352.48z"/>
   <path class="fil0" d="M6915.96 15817.04c-184.56,-89.96 -529.5,-372.07 -790.11,-380.65 -122.56,115.35 -232.37,303.58 -352.78,382.97 -207.65,-79.24 -507.45,-266.81 -653.71,-395.98 -136.14,-120.24 -418.22,-447.49 -448.64,-653.22 141.41,-244.83 345.94,-231.2 237.05,-544.47 -51.09,-146.98 -184.69,-528.07 -263.59,-618.53 -348.14,-52.53 -503.12,66.23 -629.54,287.44 -152.1,266.14 -120.41,449.27 -36.75,729.39 83.2,278.58 210.34,548.01 375.93,757.31 379.83,480.06 695.09,840.25 1464.51,1075.58 616.95,188.69 1107.01,29.43 1097.63,-639.84z"/>
  </g>
 </g>
</svg>
