<?xml version="1.0" encoding="UTF-8"?>
<!DOCTYPE svg PUBLIC "-//W3C//DTD SVG 1.1//EN" "http://www.w3.org/Graphics/SVG/1.1/DTD/svg11.dtd">
<!-- Creator: CorelDRAW 2020 (64-Bit) -->
<svg xmlns="http://www.w3.org/2000/svg" xml:space="preserve" width="210mm" height="297mm" version="1.1" style="shape-rendering:geometricPrecision; text-rendering:geometricPrecision; image-rendering:optimizeQuality; fill-rule:evenodd; clip-rule:evenodd"
viewBox="0 0 21000 29700"
 xmlns:xlink="http://www.w3.org/1999/xlink"
 xmlns:xodm="http://www.corel.com/coreldraw/odm/2003">
 <defs>
  <style type="text/css">
   <![CDATA[
    .fil0 {fill:#33CC33}
   ]]>
  </style>
 </defs>
 <g id="Layer_x0020_1">
  <metadata id="CorelCorpID_0Corel-Layer"/>
  <g id="_1895808087392">
   <path class="fil0" d="M13356.47 10045.56c49.16,-288.02 -15.94,-284.67 -131.4,-487.43 -568.86,-998.99 -345.81,-2215.48 345.57,-2961.84 1593.5,-1720.18 4491.41,-594.13 4505.83,1749.55 11.37,1846.28 -1975.53,3147.45 -3751.86,2264.37 -457.94,-227.65 -328.73,-42.01 -1057.43,38.42l89.29 -603.07zm-719.34 1196.5c335.97,-21.64 1134.37,-229.42 1371.85,-204.06 74.29,7.94 444.15,176.94 583.86,218.38 1358.53,402.93 2408.6,-64.96 3233.58,-897.42 1056.48,-1066.03 1009.16,-3143.28 -202.73,-4246.65 -512.15,-466.3 -1328.66,-923.53 -2339.1,-848.14 -795.29,59.34 -1707.41,467.83 -2146.73,1040.07 -470.27,612.56 -855.89,1324.79 -717.05,2394.77 92.59,713.49 268.93,839.48 409.77,1185.34 80.42,197.48 -162.99,1129.18 -193.45,1357.71z"/>
   <path class="fil0" d="M17034.41 9133.49c-139.83,-109.16 -588.74,-389.48 -797.24,-398.6 -97.32,85.22 -251.75,290.19 -314.17,383.75 -385.26,-61.31 -1133.96,-710.86 -1129.86,-1096.66 114.65,-120.48 196.01,-165.16 275.15,-311.12 -30.94,-216.41 -203.58,-604.11 -284.72,-800.15 -597.34,-114.32 -860.33,439.33 -699.93,977.63 431.79,1449.11 2043.64,2208.13 2643.23,1864.83 164.15,-93.98 318.33,-383.5 307.54,-619.68z"/>
  </g>
 </g>
</svg>
